<svg xmlns="http://www.w3.org/2000/svg" width="400" height="300" viewBox="0 0 400 300">
  <defs>
    <linearGradient id="bg" x1="0%" y1="0%" x2="100%" y2="100%">
      <stop offset="0%" style="stop-color:#1a2332"/>
      <stop offset="100%" style="stop-color:#0f1419"/>
    </linearGradient>
  </defs>
  <rect width="400" height="300" fill="url(#bg)"/>
  <text x="200" y="240" text-anchor="middle" fill="#16A34A" font-size="16" font-family="sans-serif">长弓溪谷</text>
  <text x="200" y="140" text-anchor="middle" fill="#16A34A" font-size="80" font-family="sans-serif" opacity="0.3">长</text>
  <path d="M9 20l-5.447-2.724A1 1 0 013 16.382V5.618a1 1 0 011.447-.894L9 7m0 13l6-3m-6 3V7m6 10l4.553 2.276A1 1 0 0021 18.382V7.618a1 1 0 00-.553-.894L15 7m0 13V7" transform="translate(176, 80) scale(2)" fill="none" stroke="#16A34A" stroke-width="1.5" stroke-linecap="round" stroke-linejoin="round" opacity="0.5"/>
</svg>